<svg width="952" height="485" viewBox="0 0 952 485" fill="none" xmlns="http://www.w3.org/2000/svg">
<circle cx="241.505" cy="242.5" r="217.354" stroke="#F6F6F6" stroke-width="48.301"/>
<circle cx="241.505" cy="242.5" r="51.751" fill="#F6F6F6"/>
<rect x="507.006" y="52.7463" width="41.4008" height="345.007" rx="20.7004" transform="rotate(56.6736 507.006 52.7463)" fill="#F6F6F6"/>
<path d="M718.726 157.911C718.726 159.875 718.604 161.921 718.358 164.049H670.849C671.177 168.305 672.527 171.579 674.901 173.87C677.356 176.08 680.343 177.185 683.862 177.185C689.1 177.185 692.742 174.975 694.788 170.556H717.131C715.985 175.057 713.898 179.108 710.87 182.709C707.923 186.31 704.2 189.133 699.698 191.179C695.197 193.225 690.164 194.248 684.599 194.248C677.888 194.248 671.913 192.816 666.676 189.952C661.438 187.087 657.346 182.995 654.399 177.676C651.453 172.356 649.98 166.136 649.98 159.016C649.98 151.896 651.412 145.676 654.277 140.356C657.223 135.037 661.315 130.944 666.553 128.08C671.791 125.216 677.806 123.783 684.599 123.783C691.228 123.783 697.12 125.175 702.276 127.957C707.432 130.74 711.443 134.709 714.307 139.865C717.253 145.021 718.726 151.036 718.726 157.911ZM697.243 152.387C697.243 148.786 696.016 145.921 693.56 143.794C691.105 141.666 688.036 140.602 684.353 140.602C680.834 140.602 677.847 141.625 675.392 143.671C673.018 145.717 671.545 148.622 670.972 152.387H697.243ZM725.627 158.893C725.627 151.855 726.936 145.676 729.555 140.356C732.256 135.037 735.898 130.944 740.481 128.08C745.064 125.216 750.179 123.783 755.826 123.783C760.655 123.783 764.87 124.765 768.471 126.73C772.154 128.694 774.977 131.272 776.941 134.464V124.765H797.934V193.266H776.941V183.568C774.895 186.76 772.031 189.338 768.348 191.302C764.747 193.266 760.532 194.248 755.704 194.248C750.138 194.248 745.064 192.816 740.481 189.952C735.898 187.006 732.256 182.873 729.555 177.553C726.936 172.151 725.627 165.931 725.627 158.893ZM776.941 159.016C776.941 153.778 775.468 149.645 772.522 146.617C769.657 143.589 766.138 142.075 761.964 142.075C757.791 142.075 754.23 143.589 751.284 146.617C748.42 149.563 746.987 153.655 746.987 158.893C746.987 164.131 748.42 168.305 751.284 171.415C754.23 174.443 757.791 175.957 761.964 175.957C766.138 175.957 769.657 174.443 772.522 171.415C775.468 168.387 776.941 164.254 776.941 159.016ZM840.987 194.248C835.013 194.248 829.693 193.225 825.028 191.179C820.363 189.133 816.681 186.351 813.98 182.832C811.279 179.231 809.765 175.22 809.438 170.801H830.184C830.43 173.174 831.535 175.098 833.499 176.571C835.463 178.044 837.877 178.781 840.742 178.781C843.361 178.781 845.366 178.289 846.757 177.307C848.23 176.243 848.967 174.893 848.967 173.256C848.967 171.292 847.944 169.86 845.898 168.96C843.852 167.978 840.537 166.914 835.954 165.768C831.044 164.622 826.952 163.435 823.678 162.208C820.404 160.898 817.581 158.893 815.207 156.192C812.834 153.41 811.647 149.686 811.647 145.021C811.647 141.093 812.711 137.533 814.839 134.341C817.049 131.067 820.241 128.489 824.414 126.607C828.67 124.725 833.703 123.783 839.514 123.783C848.107 123.783 854.859 125.911 859.77 130.167C864.762 134.423 867.627 140.07 868.363 147.108H848.967C848.639 144.735 847.575 142.852 845.775 141.461C844.056 140.07 841.765 139.374 838.9 139.374C836.445 139.374 834.563 139.865 833.253 140.847C831.944 141.747 831.289 143.016 831.289 144.653C831.289 146.617 832.312 148.09 834.358 149.072C836.486 150.054 839.76 151.036 844.179 152.019C849.253 153.328 853.386 154.637 856.578 155.947C859.77 157.175 862.552 159.221 864.926 162.085C867.381 164.868 868.65 168.632 868.731 173.379C868.731 177.389 867.586 180.99 865.294 184.182C863.084 187.292 859.852 189.747 855.596 191.548C851.422 193.348 846.552 194.248 840.987 194.248ZM951.548 124.765L908.582 225.798H885.994L901.707 190.934L873.84 124.765H897.288L913.124 167.609L928.838 124.765H951.548ZM718.726 341.911C718.726 343.875 718.604 345.921 718.358 348.049H670.849C671.177 352.305 672.527 355.579 674.901 357.87C677.356 360.08 680.343 361.185 683.862 361.185C689.1 361.185 692.742 358.975 694.788 354.556H717.131C715.985 359.057 713.898 363.108 710.87 366.709C707.923 370.31 704.2 373.133 699.698 375.179C695.197 377.225 690.164 378.248 684.599 378.248C677.888 378.248 671.913 376.816 666.676 373.952C661.438 371.087 657.346 366.995 654.399 361.676C651.453 356.356 649.98 350.136 649.98 343.016C649.98 335.896 651.412 329.676 654.277 324.356C657.223 319.037 661.315 314.944 666.553 312.08C671.791 309.216 677.806 307.783 684.599 307.783C691.228 307.783 697.12 309.175 702.276 311.957C707.432 314.74 711.443 318.709 714.307 323.865C717.253 329.021 718.726 335.036 718.726 341.911ZM697.243 336.387C697.243 332.786 696.016 329.921 693.56 327.794C691.105 325.666 688.036 324.602 684.353 324.602C680.834 324.602 677.847 325.625 675.392 327.671C673.018 329.717 671.545 332.622 670.972 336.387H697.243ZM725.627 342.893C725.627 335.855 726.936 329.676 729.555 324.356C732.256 319.037 735.898 314.944 740.481 312.08C745.064 309.216 750.179 307.783 755.826 307.783C760.655 307.783 764.87 308.765 768.471 310.73C772.154 312.694 774.977 315.272 776.941 318.464V308.765H797.934V377.266H776.941V367.568C774.895 370.76 772.031 373.338 768.348 375.302C764.747 377.266 760.532 378.248 755.704 378.248C750.138 378.248 745.064 376.816 740.481 373.952C735.898 371.006 732.256 366.873 729.555 361.553C726.936 356.151 725.627 349.931 725.627 342.893ZM776.941 343.016C776.941 337.778 775.468 333.645 772.522 330.617C769.657 327.589 766.138 326.075 761.964 326.075C757.791 326.075 754.23 327.589 751.284 330.617C748.42 333.563 746.987 337.655 746.987 342.893C746.987 348.131 748.42 352.305 751.284 355.415C754.23 358.443 757.791 359.957 761.964 359.957C766.138 359.957 769.657 358.443 772.522 355.415C775.468 352.387 776.941 348.254 776.941 343.016ZM851.299 359.466V377.266H840.619C833.008 377.266 827.074 375.425 822.819 371.742C818.563 367.977 816.435 361.88 816.435 353.451V326.198H808.087V308.765H816.435V292.07H837.427V308.765H851.176V326.198H837.427V353.696C837.427 355.742 837.918 357.215 838.9 358.116C839.882 359.016 841.519 359.466 843.811 359.466H851.299Z" fill="#F6F6F6"/>
</svg>
